<svg width="96" height="96" viewBox="0 0 96 96" fill="none" xmlns="http://www.w3.org/2000/svg">
<circle cx="48" cy="48" r="48" fill="#12181D"/>
<path d="M84.9131 50.9999H83.411L83.711 50.3075C83.8805 49.9199 83.861 49.46 83.6632 49.0925C83.4654 48.725 83.1154 48.5 82.7392 48.5H66.4349V42.2499C66.4348 38.8025 63.9957 36 61.0001 36C58.0044 36 55.5653 38.8025 55.5653 42.2499V48.4999H39.261C38.8848 48.4999 38.5349 48.7273 38.337 49.0948C38.1392 49.4623 38.1197 49.9223 38.2892 50.3098L38.5892 50.9999H37.087C36.487 50.9999 36 51.56 36 52.25C36 52.94 36.487 53.5 37.087 53.5H39.6761L41.55 57.81C41.7347 58.2325 42.1109 58.5 42.5217 58.5H51.2174V88.4999H50.1305C49.5305 88.4999 49.0435 89.0599 49.0435 89.7499V94.75C49.0435 95.44 49.5305 96 50.1305 96H71.8695C72.4695 96 72.9565 95.44 72.9565 94.75V89.7499C72.9565 89.0599 72.4695 88.4999 71.8695 88.4999H70.7827V58.4975H79.4783C79.8891 58.4975 80.2653 58.2299 80.45 57.8075L82.3239 53.5H84.913C85.513 53.5 86 52.94 86 52.25C86 51.56 85.5131 50.9999 84.9131 50.9999ZM70.7827 93.4998H51.2174V90.9999H70.7827V93.4998ZM65.3479 85.9998C64.7479 85.9998 64.2609 86.5599 64.2609 87.2499V88.4998H62.087V84.7498C62.087 84.0598 61.6001 83.4998 61.0001 83.4998C60.4001 83.4998 59.9131 84.0598 59.9131 84.7498V88.4998H57.7392V82.2499C57.7392 81.5599 57.2522 80.9998 56.6522 80.9998C56.0522 80.9998 55.5652 81.5599 55.5652 82.2499V88.4998H53.3913V74.5048L68.6087 85.4423V88.4998H66.4348V87.2498C66.4348 86.5598 65.9479 85.9998 65.3479 85.9998ZM78.8065 56H69.6957C69.0957 56 68.6087 56.56 68.6087 57.25V82.4974L53.3913 71.5599V57.2499C53.3913 56.5599 52.9043 55.9998 52.3043 55.9998H43.1936L41.0196 50.9999H56.6522C57.2522 50.9999 57.7392 50.4399 57.7392 49.7499V42.2499C57.7392 40.1824 59.2022 38.5 61.0001 38.5C62.7979 38.5 64.2609 40.1824 64.2609 42.2499V49.7499C64.2609 50.4399 64.7479 50.9999 65.3479 50.9999H80.9805L78.8065 56Z" fill="#FFFEFE"/>
<path d="M28.4999 10C19.4018 10 12 17.6262 12 27C12 36.3738 19.4018 44 28.4999 44C37.5981 44 45 36.3737 45 27C45 17.6263 37.5981 10 28.4999 10ZM28.4999 42.2331C20.3476 42.2331 13.7149 35.3996 13.7149 27C13.7149 18.6004 20.3476 11.7669 28.4999 11.7669C36.6523 11.7669 43.285 18.6004 43.285 27C43.285 35.3996 36.6524 42.2331 28.4999 42.2331Z" fill="#FBF7FF"/>
<path d="M28.4999 15.5604C22.3775 15.5604 17.3967 20.6921 17.3967 27.0001C17.3967 33.308 22.3775 38.4398 28.4999 38.4398C31.2237 38.4398 33.8435 37.4135 35.8767 35.5499C36.2307 35.2257 36.2622 34.6672 35.9475 34.3028C35.6329 33.9383 35.0909 33.9054 34.737 34.2298C33.0181 35.8052 30.803 36.6729 28.4998 36.6729C23.3232 36.6729 19.1115 32.3337 19.1115 27.0001C19.1115 21.6665 23.3232 17.3273 28.4998 17.3273C33.6765 17.3273 37.8881 21.6664 37.8881 27.0001C37.8881 28.406 37.602 29.7614 37.0378 31.0282C36.8404 31.4717 37.0293 31.9961 37.4597 32.1996C37.8902 32.4032 38.3993 32.2084 38.5966 31.7649C39.2643 30.2652 39.6029 28.662 39.6029 26.9999C39.6032 20.6921 34.6223 15.5604 28.4999 15.5604Z" fill="#FBF7FF"/>
</svg>
